<svg viewBox="0 0 165.85 29.29" xmlns="http://www.w3.org/2000/svg" xmlns:xlink="http://www.w3.org/1999/xlink"><clipPath id="a" transform="translate(.31)"><path d="m13 0a2 2 0 0 0 -2.14 2.18l.16 9-7.71-4.64a2 2 0 0 0 -3 .78 2 2 0 0 0 .82 3l7.87 4.33-7.83 4.35a2 2 0 0 0 -.82 3 2 2 0 0 0 3 .78l7.65-4.68-.16 9a2 2 0 0 0 2.16 2.19 2 2 0 0 0 2.14-2.18l-.17-9 7.74 4.65a2 2 0 0 0 3-.78 2 2 0 0 0 -.83-3l-7.88-4.33 7.85-4.37a2 2 0 0 0 .83-3 2 2 0 0 0 -3-.78l-7.68 4.69.17-9a2 2 0 0 0 -2.17-2.19z"/></clipPath><linearGradient id="b" gradientTransform="matrix(139.49 0 0 -139.49 82981.43 56089.43)" gradientUnits="userSpaceOnUse" x1="-594.81" x2="-593.81" y1="402" y2="402"><stop offset="0" stop-color="#22d3c4"/><stop offset=".01" stop-color="#22d3c4"/><stop offset=".12" stop-color="#24d3bb"/><stop offset=".31" stop-color="#2ad2a3"/><stop offset=".54" stop-color="#33d07b"/><stop offset=".81" stop-color="#40ce45"/><stop offset="1" stop-color="#4acc1a"/></linearGradient><clipPath id="c" transform="translate(.31)"><path d="m45.51 5.06h4.59c3.2 0 4.59 1.17 4.59 3.87v2c0 2.7-1.36 3.87-4.59 3.87h-4.59zm-2.18-3.8a2.27 2.27 0 0 0 -2.45 2.45v22.57a1.24 1.24 0 0 0 1.32 1.31h2a1.24 1.24 0 0 0 1.32-1.31v-7.64h4.58c6.24 0 9.25-2.6 9.25-7.94v-1.5c0-5.34-3-7.94-9.25-7.94zm23.23 0a2.27 2.27 0 0 0 -2.45 2.45v22.57a1.24 1.24 0 0 0 1.32 1.31h2a1.24 1.24 0 0 0 1.32-1.31v-21.22h5.61c2.89 0 4.13 1.05 4.13 3.61v1.81c0 2.55-1.24 3.61-4.13 3.61h-1.29a1.72 1.72 0 0 0 -2 1.84v.07a3.5 3.5 0 0 0 1 2.19l6.58 8.68a2.39 2.39 0 0 0 3.31.53 2.17 2.17 0 0 0 .45-3.27l-5.34-6.7c4-.6 6-2.86 6-7v-1.53c0-5.08-2.94-7.64-8.8-7.64zm49.31 0a1.92 1.92 0 0 0 -2.07 2.07v23a1.23 1.23 0 0 0 1.31 1.31h2a1.23 1.23 0 0 0 1.31-1.31v-9.68h8.84a1.81 1.81 0 0 0 2-1.85v-.19a1.8 1.8 0 0 0 -2-1.84h-8.84v-7.67h10.88a1.15 1.15 0 0 0 1.27-1.28v-1.28a1.15 1.15 0 0 0 -1.27-1.28zm20.49 0a1.24 1.24 0 0 0 -1.31 1.32v23.7a1.23 1.23 0 0 0 1.31 1.31h2a1.23 1.23 0 0 0 1.31-1.31v-23.7a1.24 1.24 0 0 0 -1.31-1.32zm14 3.8h3.73c4.44 0 6.77 2.14 6.77 6.47v5.79c0 4.33-2.33 6.47-6.77 6.47h-3.73zm-2.55-3.8a1.92 1.92 0 0 0 -2.07 2.07v22.19a1.92 1.92 0 0 0 2.07 2.07h6.19c7.63 0 11.58-3.53 11.58-10.45v-5.42c0-6.92-3.95-10.46-11.58-10.46zm-55.34 17.74v-9.12c0-3.43 1.88-5.31 5.57-5.31s5.56 1.88 5.56 5.31v9.12c0 3.42-1.95 5.3-5.56 5.3s-5.57-1.9-5.57-5.3m-4.7-8.77v8.43c0 5.92 3.72 9.34 10.23 9.34s10.27-3.43 10.27-9.37v-8.42c0-5.94-3.73-9.36-10.27-9.36s-10.23 3.42-10.23 9.36"/></clipPath><linearGradient id="d" x1="-594.81" x2="-593.81" xlink:href="#b" y1="402" y2="402"/><g clip-path="url(#a)"><path d="m0 0h26.66v29.29h-26.66z" fill="url(#b)"/></g><g clip-path="url(#c)"><path d="m41.2.85h124.66v27.38h-124.66z" fill="url(#d)"/></g></svg>
